<?xml version="1.0" standalone="yes"?>

<svg version="1.1" viewBox="0.0 0.0 600.0 600.0" fill="none" stroke="none" stroke-linecap="square" stroke-miterlimit="10" xmlns="http://www.w3.org/2000/svg" xmlns:xlink="http://www.w3.org/1999/xlink"><clipPath id="p.0"><path d="m0 0l600.0 0l0 600.0l-600.0 0l0 -600.0z" clip-rule="nonzero"></path></clipPath><g clip-path="url(#p.0)"><path fill="#000000" fill-opacity="0.0" d="m0 0l600.0 0l0 600.0l-600.0 0z" fill-rule="evenodd"></path><path fill="#222222" d="m0 0l600.0 0l0 600.0l-600.0 0z" fill-rule="evenodd"></path><path fill="#ffffff" d="m141.51953 234.56247q3.203125 1.0625 3.203125 6.390625q0 1.0625 -0.265625 1.875q-0.265625 0.796875 -0.265625 1.328125l0 1.0625q-12.265625 30.390625 -23.203125 67.703125q-10.921875 37.296875 -23.71875 75.140625q-12.78125 37.84375 -27.96875 73.5625q-15.1875 35.703125 -35.453125 62.359406q-4.265625 5.859375 -5.328125 5.859375q-1.59375 0 -3.46875 -5.59375q-1.859375 -5.59375 -1.859375 -6.671875q0 -1.0625 14.921875 -38.90628q6.9375 -17.578125 15.1875 -40.5q8.265625 -22.921875 17.0625 -47.96875q8.796875 -25.0625 17.046875 -49.84375q8.265625 -24.78125 15.734375 -46.109375q4.265625 -12.78125 9.0625 -24.234375q4.796875 -11.46875 9.0625 -20.0q4.265625 -8.53125 7.71875 -13.328125q3.46875 -4.796875 5.609375 -4.796875q1.0625 0 2.921875 0.8125q1.875 0.796875 4.0 1.859375zm85.91922 223.32812q0 3.203125 -3.203125 6.140625q-3.203125 2.921875 -7.203125 5.328125q-3.984375 2.390625 -7.71875 3.71875q-3.734375 1.328125 -4.265625 1.328125q-4.796875 0 -7.203125 -2.390625q-2.390625 -2.40625 -3.734375 -5.328125q-1.328125 -2.9375 -1.59375 -5.59375q-0.265625 -2.671875 -0.265625 -3.734375q0 -2.140625 1.0625 -5.59375q1.078125 -3.46875 3.203125 -6.671875q2.140625 -3.203125 5.0625 -5.59375q2.9375 -2.40625 6.671875 -2.40625q6.921875 0 13.046875 5.875q6.140625 5.859375 6.140625 14.921875zm193.52322 -202.54688q0 2.671875 -6.40625 8.796875q-6.390625 6.125 -14.390625 13.0625q-7.984375 6.921875 -15.1875 13.0625q-7.1875 6.125 -8.796875 8.25q3.203125 0.53125 8.0 0.8125q4.796875 0.265625 9.328125 1.0625q4.53125 0.796875 7.453125 2.671875q2.9375 1.859375 2.9375 5.578125q0 2.671875 -5.0625 4.546875q-5.0625 1.859375 -6.65625 1.859375q-7.46875 0 -12.796875 0.265625q-5.328125 0.265625 -10.125 1.0625q-4.796875 0.796875 -9.59375 2.140625q-4.796875 1.328125 -10.65625 2.921875l0 4.796875q0 4.796875 6.125 9.859375q6.125 5.0625 13.84375 10.125q7.734375 5.0625 13.859375 10.140625q6.140625 5.0625 6.140625 9.859375q0 1.59375 -1.609375 3.734375q-1.59375 2.125 -3.71875 2.125q-3.734375 0 -11.734375 -3.734375q-7.984375 -3.734375 -16.515625 -9.0625q-8.53125 -5.328125 -15.734375 -10.65625q-7.1875 -5.328125 -9.3125 -8.53125q-10.125 5.859375 -16.796875 17.328125q-6.65625 11.453125 -14.125 21.578125q-6.390625 0 -10.390625 -2.125q-4.0 -2.140625 -4.0 -8.0q0 -10.65625 9.0625 -21.3125q9.0625 -10.671875 16.53125 -20.265625q-5.34375 0 -13.875 -1.0625q-8.515625 -1.0625 -12.78125 -1.59375q-5.859375 -0.53125 -13.0625 -5.859375q-7.1875 -5.34375 -7.1875 -11.734375q0 -2.65625 3.453125 -4.25q3.46875 -1.609375 7.203125 -1.609375q4.265625 0 11.984375 2.140625q7.734375 2.125 20.0 2.125q3.71875 0 4.796875 -1.609375q-2.140625 -3.71875 -4.546875 -11.984375q-2.390625 -8.265625 -2.390625 -19.453125q0 -6.390625 5.0625 -8.78125q5.0625 -2.40625 7.203125 -2.40625q4.796875 0 7.71875 5.0625q2.9375 5.0625 5.0625 11.71875q2.140625 6.65625 4.53125 13.328125q2.40625 6.65625 5.609375 9.859375q1.0625 -1.0625 10.65625 -9.859375q9.59375 -8.796875 21.578125 -18.921875q12.0 -10.125 22.65625 -18.390625q10.65625 -8.265625 13.328125 -8.265625q3.734375 0 8.53125 4.0q4.796875 4.0 4.796875 5.59375zm140.28674 -20.78125q3.203125 1.0625 3.203125 6.390625q0 1.0625 -0.265625 1.875q-0.265625 0.796875 -0.265625 1.328125l0 1.0625q-12.265625 30.390625 -23.203125 67.703125q-10.921875 37.296875 -23.71875 75.140625q-12.78125 37.84375 -27.96875 73.5625q-15.1875 35.703125 -35.453125 62.359406q-4.265625 5.859375 -5.328125 5.859375q-1.59375 0 -3.46875 -5.59375q-1.859375 -5.59375 -1.859375 -6.671875q0 -1.0625 14.921875 -38.90628q6.9375 -17.578125 15.1875 -40.5q8.265625 -22.921875 17.0625 -47.96875q8.796875 -25.0625 17.046875 -49.84375q8.265625 -24.78125 15.734375 -46.109375q4.265625 -12.78125 9.0625 -24.234375q4.796875 -11.46875 9.0625 -20.0q4.265625 -8.53125 7.71875 -13.328125q3.46875 -4.796875 5.609375 -4.796875q1.0625 0 2.921875 0.8125q1.875 0.796875 4.0 1.859375z" fill-rule="nonzero"></path></g></svg>

