<?xml version="1.0" standalone="no"?>
<!DOCTYPE svg PUBLIC "-//W3C//DTD SVG 20010904//EN"
 "http://www.w3.org/TR/2001/REC-SVG-20010904/DTD/svg10.dtd">
<svg version="1.0" xmlns="http://www.w3.org/2000/svg"
 width="700.000000pt" height="700.000000pt" viewBox="0 0 700.000000 700.000000"
 preserveAspectRatio="xMidYMid meet">
<metadata>
Created by potrace 1.11, written by Peter Selinger 2001-2013
</metadata>
<g transform="translate(0.000000,700.000000) scale(0.100000,-0.100000)"
fill="#000000" stroke="none">
<path d="M1540 4273 c-34 -28 -111 -154 -154 -253 -16 -36 -39 -87 -52 -115
-50 -112 -212 -562 -304 -845 -135 -416 -435 -1253 -670 -1863 l-91 -239 21
-64 c12 -35 26 -67 31 -70 16 -9 45 22 119 126 174 244 292 473 459 888 164
408 294 792 536 1582 85 278 166 520 195 585 69 152 73 240 12 264 -15 6 -37
15 -49 21 -18 7 -29 4 -53 -17z"/>
<path d="M6432 4270 c-42 -39 -101 -142 -168 -290 -91 -202 -114 -265 -294
-795 -308 -906 -552 -1586 -757 -2104 -33 -83 -43 -121 -39 -143 9 -45 43
-118 55 -118 25 0 223 291 313 459 71 134 77 145 118 235 46 98 225 545 260
646 12 36 26 74 30 85 41 97 175 505 296 900 151 491 215 687 290 883 56 146
61 222 16 235 -9 3 -33 12 -53 21 -36 15 -37 15 -67 -14z"/>
<path d="M4674 4089 c-49 -35 -274 -211 -310 -244 -6 -5 -37 -32 -69 -60 -32
-27 -63 -54 -69 -60 -6 -5 -45 -39 -86 -75 -41 -36 -97 -86 -125 -112 -27 -26
-52 -48 -55 -48 -15 0 -54 81 -95 200 -75 211 -106 260 -169 260 -43 0 -117
-40 -133 -71 -14 -26 -15 -154 -2 -204 5 -16 11 -46 14 -65 3 -19 17 -62 30
-95 14 -34 21 -63 16 -68 -15 -15 -171 -9 -251 9 -14 3 -36 8 -50 11 -14 2
-41 8 -61 12 -46 10 -105 4 -146 -16 -36 -17 -43 -46 -23 -97 22 -59 143 -143
217 -152 21 -2 54 -7 73 -10 19 -3 55 -8 80 -10 127 -10 152 -13 155 -16 2 -2
-44 -62 -102 -133 -157 -193 -183 -242 -184 -343 -1 -63 23 -96 80 -112 86
-24 68 -41 268 266 39 60 83 108 136 148 l37 28 43 -38 c58 -52 92 -81 103
-85 5 -2 54 -34 109 -71 127 -84 263 -154 332 -169 47 -11 55 -10 72 5 28 26
34 62 15 98 -25 49 -53 73 -269 226 -55 39 -110 80 -122 90 -35 31 -63 85 -63
124 0 36 1 37 53 52 138 40 241 55 403 60 149 5 226 68 159 130 -29 27 -94 44
-200 53 -38 3 -74 9 -78 13 -10 9 -5 14 172 168 185 161 319 289 327 314 3 10
-2 30 -11 44 -22 34 -103 84 -135 84 -15 0 -53 -18 -86 -41z"/>
<path d="M2371 1883 c-61 -30 -119 -130 -125 -212 -4 -64 11 -115 48 -156 43
-50 88 -59 155 -31 75 32 165 94 184 126 52 87 -16 225 -136 275 -47 19 -83
19 -126 -2z"/>
</g>
</svg>
